<?xml version="1.0" standalone="no"?>
<!DOCTYPE svg PUBLIC "-//W3C//DTD SVG 1.1//EN" "http://www.w3.org/Graphics/SVG/1.1/DTD/svg11.dtd" >
<svg xmlns="http://www.w3.org/2000/svg">
<metadata>Generated by IcoMoon</metadata>
<defs>
<font id="amex-ui-kit-font" horiz-adv-x="1024">
<font-face units-per-em="1024" ascent="960" descent="-64" />
<missing-glyph horiz-adv-x="1024" />
<glyph unicode="&#x20;" d="" horiz-adv-x="512" />
<glyph unicode="&#xe600;" d="M478.436 204.516h67.243v-73.614h-67.243v73.614zM478.436 672.028h67.243v-371.484h-67.243v371.484zM992.37 211.001l-352.256 608.37c-32.085 57.685-80.1 92.956-128.114 92.956-51.2 0-99.328-31.972-131.3-92.843l-349.070-608.484c-35.271-54.5-41.643-115.257-16.043-160.085 25.6-41.643 76.914-67.243 144.156-67.243h701.44c70.428 0 118.443 22.414 147.342 67.243 25.486 41.529 19.115 96.028-16.156 160.085zM954.027 79.588c-12.857-22.414-44.828-35.271-92.843-35.271h-701.44c-48.014 0-80.1 12.857-96.028 35.271-16.043 31.972 0 73.614 16.043 99.328l355.442 611.669c16.043 28.786 41.643 60.871 76.914 60.871s60.871-35.271 76.914-64.057l352.256-608.484c22.3-38.343 25.486-76.8 12.743-99.328z" />
<glyph unicode="&#xe601;" d="M992.37 211.001l-352.256 608.37c-32.085 57.685-80.1 92.956-128.114 92.956-51.2 0-99.328-31.972-131.3-92.843l-349.070-608.484c-35.271-54.5-41.643-115.257-16.043-160.085 25.6-41.643 76.914-67.243 144.156-67.243h701.44c70.428 0 118.443 22.414 147.342 67.243 25.486 41.529 19.115 96.028-16.156 160.085zM478.436 204.402h67.243v-73.614h-67.243v73.614zM545.564 300.43h-67.243v371.598h67.243v-371.598z" />
<glyph unicode="&#xe602;" d="M512 960c-281.6 0-512-230.4-512-512s230.4-512 512-512 512 230.4 512 512-230.4 512-512 512zM512-3.243c-249.628 0-451.243 201.614-451.243 451.243s201.614 451.243 451.243 451.243 451.243-201.614 451.243-451.243-201.614-451.243-451.243-451.243zM475.819 747.804h72.363v-416.768h-72.363v416.768zM475.819 224.427h72.363v-74.297h-72.363v74.297z" />
<glyph unicode="&#xe603;" d="M512 960c-281.6 0-512-230.4-512-512s230.4-512 512-512 512 230.4 512 512-230.4 512-512 512zM475.819 747.804h72.363v-416.768h-72.363v416.768zM475.819 224.427h72.363v-74.297h-72.363v74.297z" />
<glyph unicode="&#xe604;" d="M512 864c121.6 0 233.6-54.4 310.4-137.6l-150.4-150.4h352v352l-134.4-134.4c-92.8 102.4-227.2 166.4-377.6 166.4-281.6 0-512-230.4-512-512h96c0 230.4 185.6 416 416 416zM928 448c0-230.4-185.6-416-416-416-121.6 0-233.6 54.4-310.4 137.6l150.4 150.4h-352v-352l134.4 134.4c92.8-102.4 227.2-166.4 377.6-166.4 281.6 0 512 230.4 512 512h-96z" />
<glyph unicode="&#xe605;" d="M256 832v-896l320 320 320-320v896h-640zM768 960h-640v-896l64 64v768h576v64z" />
<glyph unicode="&#xe606;" d="M192 960v-1024l320 320 320-320v1024h-640z" />
<glyph unicode="&#xe607;" d="M965.715 792.363c-14.438 14.438-31.549 21.656-51.334 21.656h-72.99v54.809c0 25.132-8.823 46.521-26.736 64.434s-39.302 27.004-64.434 27.004h-36.361c-25.132 0-46.521-8.823-64.434-26.736s-26.736-39.302-26.736-64.434v-54.809h-219.238v54.542c0 25.132-8.823 46.521-26.736 64.434s-39.302 27.004-64.434 27.004h-36.361c-25.132 0-46.521-8.823-64.434-26.736s-26.736-39.302-26.736-64.434v-54.809h-72.99c-19.785 0-36.896-7.219-51.334-21.656s-21.656-31.549-21.656-51.334v-730.436c0-19.785 7.219-36.896 21.656-51.334 14.705-14.438 31.549-21.656 51.334-21.656h803.426c19.785 0 36.896 7.219 51.334 21.656s21.656 31.549 21.656 51.334v730.168c-0.802 19.785-8.021 36.896-22.458 51.334zM914.114 594.782v-170.31h-173.786v170.31h173.786zM493.819 180.904v-170.31h-173.251v170.31h173.251zM320.568 217.533v170.31h173.519v-170.578l-173.519 0.267zM530.448 180.904h173.519v-170.31h-173.519v170.31zM530.448 217.533v170.31h173.519v-170.578l-173.519 0.267zM740.328 387.843h173.786v-170.578h-173.786v170.578zM695.144 868.829c0 5.347 1.604 9.625 5.080 13.101s7.754 5.080 13.101 5.080h36.361c5.347 0 9.625-1.604 13.101-5.080s5.080-7.754 5.080-13.101v-164.161c0-5.347-1.604-9.625-5.080-13.101s-7.754-5.080-13.101-5.080h-36.361c-5.347 0-9.625 1.604-13.101 5.080s-5.080 7.754-5.080 13.101v164.161zM703.967 594.782v-170.31h-173.519v170.31h173.519zM493.819 594.782v-170.31h-173.251v170.31h173.251zM256.936 868.829c0 5.347 1.604 9.625 5.080 13.101s7.754 5.080 13.101 5.080h36.361c5.347 0 9.625-1.604 13.101-5.080s5.080-7.754 5.080-13.101v-164.161c0-5.347-1.604-9.625-5.080-13.101s-7.754-5.080-13.101-5.080h-36.361c-5.347 0-9.625 1.604-13.101 5.080s-5.080 7.754-5.080 13.101v164.161zM110.688 594.782h173.251v-170.31h-173.251v170.31zM110.688 387.843h173.251v-170.578h-173.251v170.578zM110.688 180.904h173.251v-170.31h-173.251v170.31zM740.328 10.594v170.31h173.786v-170.31h-173.786z" horiz-adv-x="950" />
<glyph unicode="&#xe608;" d="M384 64c0-53.019-42.981-96-96-96s-96 42.981-96 96c0 53.019 42.981 96 96 96s96-42.981 96-96zM1024 64c0-53.019-42.981-96-96-96s-96 42.981-96 96c0 53.019 42.981 96 96 96s96-42.981 96-96zM1024 480v384h-768c0 35.2-28.8 64-64 64h-192v-64h128l48-412.8c-28.8-22.4-48-57.6-48-99.2 0-70.4 57.6-128 128-128h768v64h-768c-35.2 0-64 28.8-64 64 0 0 0 0 0 0l832 128z" />
<glyph unicode="&#xe609;" d="M406.414 332.857l-118.443 118.329-48.014-51.2 166.457-166.343 377.628 380.7-51.2 48.014zM844.8 960h-665.6c-99.214 0-179.2-79.986-179.2-179.2v-662.414c0-102.4 79.986-182.386 179.2-182.386h662.414c99.214 0 179.2 79.986 179.2 179.2v665.6c3.186 99.214-76.8 179.2-176.014 179.2zM963.243 115.2c0-67.243-54.386-121.628-121.628-121.628h-662.414c-67.243 0-121.628 54.386-121.628 121.628v665.6c0 67.243 54.386 121.628 121.628 121.628h662.414c67.243 0 121.628-54.386 121.628-121.628v-665.6z" />
<glyph unicode="&#xe60a;" d="M844.8 960h-665.6c-99.2 0-179.2-80-179.2-179.2v-662.4c0-102.4 80-182.4 179.2-182.4h662.4c99.2 0 179.2 80 179.2 179.2v665.6c3.2 99.2-76.8 179.2-176 179.2zM406.4 233.6v0l-166.4 166.4 48 51.2 118.4-118.4 326.4 329.6 51.2-48-377.6-380.8z" />
<glyph unicode="&#xe60b;" d="M844.8 960h-665.6c-99.2 0-179.2-80-179.2-179.2v-662.4c0-102.4 80-182.4 179.2-182.4h662.4c99.2 0 179.2 80 179.2 179.2v665.6c3.2 99.2-76.8 179.2-176 179.2zM963.2 115.2c0-67.2-54.4-121.6-121.6-121.6h-662.4c-67.2 0-121.6 54.4-121.6 121.6v665.6c0 67.2 54.4 121.6 121.6 121.6h662.4c67.2 0 121.6-54.4 121.6-121.6v-665.6z" />
<glyph unicode="&#xe60c;" d="M512 960c-281.6 0-512-230.4-512-512s230.4-512 512-512 512 230.4 512 512-230.4 512-512 512zM512-3.2c-249.6 0-451.2 201.6-451.2 451.2s201.6 451.2 451.2 451.2 451.2-201.6 451.2-451.2-201.6-451.2-451.2-451.2zM406.4 332.8l-118.4 118.4-48-48 166.4-169.6 377.6 380.8-51.2 48z" />
<glyph unicode="&#xe60d;" d="M512 960c-281.6 0-512-230.4-512-512s230.4-512 512-512 512 230.4 512 512-230.4 512-512 512zM406.4 233.6v0l-166.4 166.4 48 51.2 118.4-118.4 326.4 329.6 51.2-48-377.6-380.8z" />
<glyph unicode="&#xe60e;" d="M313.23 44.43l-313.23 319.26 90.34 90.34 222.891-222.891 614.4 620.43 96.37-90.34z" />
<glyph unicode="&#xe60f;" d="M1024 681.6l-44.8 44.8-467.2-470.4-467.2 470.4-44.8-44.8 512-512 44.8 44.8z" />
<glyph unicode="&#xe610;" d="M278.4-64l512 512-512 512-44.8-44.8 470.4-467.2-470.4-467.2z" />
<glyph unicode="&#xe611;" d="M1024 214.4l-512 512-512-512 44.8-44.8 467.2 470.4 467.2-470.4z" />
<glyph unicode="&#xe612;" d="M1024 56.036l-400.043 391.964 400.043 391.964-120.036 120.036-391.964-400.043-391.964 400.043-120.036-120.036 400.043-391.964-400.043-391.964 120.036-120.036 391.964 400.043 391.964-400.043z" />
<glyph unicode="&#xe613;" d="M221.070 566.556l173.056 9.557c19.228 0 35.271 16.043 35.271 35.271v22.414h57.572v16.043h221.070l28.786 38.457-28.786 38.457h-221.070v16.043h-57.685v22.414c0 19.228-16.043 35.271-35.271 35.271l-173.056 9.557c-19.228 0-35.271-16.043-35.271-35.271 0 0-9.557-57.685-9.557-83.285 0-41.643 9.557-89.657 9.557-89.657 0.114-19.228 16.156-35.271 35.385-35.271zM221.070 720.384c0 3.186 3.186 6.372 6.372 6.372h9.557c3.186 0 6.372-3.186 6.372-6.372v-64.171c0-3.186-3.186-6.372-6.372-6.372h-9.557c-3.186 0-6.372 3.186-6.372 6.372v64.171zM784.953 220.558c-35.271 0-67.243-28.786-67.243-67.243 0-35.271 28.786-67.243 67.243-67.243 35.271 0 67.243 28.786 67.243 67.243s-31.972 67.243-67.243 67.243zM996.466 262.201c-41.643 28.786-57.685 41.643-198.656 73.728-6.372 0-83.285 16.043-96.142 22.414s-83.285 41.643-105.7 54.5c-35.271 16.043-76.914 19.228-92.956 19.228-12.857 0-118.556 0-137.785 0-99.328 0-140.971-48.014-211.513-83.285-12.857-6.372-102.514-25.6-108.885-25.6-38.457-9.557-41.643-22.414-41.643-48.014 0-6.372-3.186-64.057-3.186-70.542 0-12.857 3.186-35.271 22.414-38.457 16.043-6.372 67.243-6.372 99.328-9.557 0 48.014 41.643 89.657 89.657 89.657 51.314 0 89.657-41.643 89.657-89.657v0h397.312c0 51.314 41.643 89.657 89.657 89.657 51.314 0 89.657-38.457 89.657-89.657 25.6 3.186 102.514 9.557 115.371 12.857 12.857 3.186 32.085 6.372 28.786 38.457 3.413 12.629 6.599 35.044-25.372 54.272zM249.856 335.815c0 0-12.857 0-12.857 6.372 0 9.557 48.014 48.014 96.142 57.685 16.043 3.186 16.043 0 16.043 0l16.043-64.057h-115.371zM627.94 339.115c-3.186 0-19.228 0-19.228 0h-211.399l-16.043 64.057h96.142c54.5 0 76.914-16.043 92.956-22.414 12.857-6.372 48.014-25.6 48.014-25.6s19.228-12.857 9.557-16.043zM221.070 220.558c-35.271 0-67.243-28.786-67.243-67.243 0-35.271 28.786-67.243 67.243-67.243 35.271 0 67.243 28.786 67.243 67.243 0 38.343-28.786 67.243-67.243 67.243z" />
<glyph unicode="&#xe614;" d="M953.344 819.143h-738.987c-38.343 0-73.614-31.972-73.614-70.428v-19.228h713.5c48.014 0 83.172-38.343 83.172-83.172v-415.858h12.743c38.343 0 73.614 31.972 73.614 73.614v447.829c3.186 35.271-28.786 67.243-70.428 67.243zM886.215 150.471c0-38.343-31.972-73.614-73.614-73.614h-738.987c-38.457 0-73.614 31.972-73.614 73.614v447.943c0 41.643 31.972 73.614 73.614 73.614h738.987c38.343 0 70.428-31.972 70.428-73.614l3.186-447.943zM547.044 201.671h67.129v140.743h124.814v67.129h-124.7v140.857h-67.129v-140.743h-124.814v-67.129h124.814v-140.857z" />
<glyph unicode="&#xe615;" d="M141.54 799.573c-9.557 0-9.557-12.743-9.557-16.043 0 0-3.186-147.115-3.186-159.858 0-16.043-25.6-16.043-25.6 0l-3.186 159.972c0 28.786-25.6 25.6-25.6 0l-3.186-159.858c0-19.228-28.786-19.228-28.786 0l3.186 166.229c0 3.186-3.186 9.557-12.743 9.557s-12.743-6.372-12.743-12.743l-19.228-211.058c-6.372-48.014 22.414-89.543 57.572-102.286l-9.671-380.473c0-12.743 12.743-35.157 41.529-35.157 31.972 0 44.715 22.414 44.715 35.157l-19.228 377.287c41.529 12.743 60.757 57.572 57.572 102.286l-16.043 214.244c0.228 6.372-2.958 15.929-15.815 12.743zM522.012 748.487c-178.972 0-322.901-143.929-322.901-322.901s143.929-322.901 322.901-322.901 322.901 143.929 322.901 322.901c0 175.787-147.001 322.901-322.901 322.901zM522.012 179.371c-134.258 0-246.215 108.658-246.215 246.215 0 134.258 108.658 246.215 246.215 246.215 134.258 0 246.215-108.658 246.215-246.215-3.186-137.557-111.957-246.215-246.215-246.215zM522.012 208.156c-118.329 0-214.244 95.915-214.244 214.244s95.915 214.244 214.244 214.244 214.244-95.915 214.244-214.244c0-115.143-95.915-214.244-214.244-214.244zM522.012 639.716c-118.329 0-214.244-95.915-214.244-214.244s96.028-214.13 214.244-214.13 214.244 95.915 214.244 214.244-95.915 214.13-214.244 214.13zM1024 818.802c0 35.157-41.529 22.414-63.943-38.343-38.343-95.915-41.529-182.272-48.014-252.587-3.186-48.014-6.372-153.486-6.372-153.486 0-9.557 28.786-9.557 54.386-9.557l-22.414-271.815c0-25.6 16.043-31.972 35.157-31.972 19.228 0 35.157 9.557 35.157 28.786l16.043 728.974z" />
<glyph unicode="&#xe616;" d="M1024 361.6l-32 137.6c-35.2-6.4-67.2 16-76.8 48-6.4 35.2 12.8 67.2 48 76.8l-32 137.6-720-166.4h636.8v-233.6h-44.8c-9.6 0-16-6.4-16-16s6.4-16 16-16h44.8v-6.4l176 38.4zM739.2 342.4c0 35.2 28.8 64 64 64v137.6h-803.2v-140.8c35.2 0 64-28.8 64-64s-28.8-64-64-64v-140.8h803.2v140.8c-35.2 3.2-64 32-64 67.2zM156.8 195.2h-16v288h16v-288zM208 195.2h-16v288h16v-288zM441.6 246.4v57.6h-156.8v86.4h156.8v57.6l128-102.4-128-99.2zM636.8 195.2h-16v288h16v-288zM688 195.2h-16v288h16v-288z" />
<glyph unicode="&#xe617;" d="M835.2 707.2h-646.4c-35.2 0-64-28.8-64-64v-16h624c41.6 0 73.6-32 73.6-73.6v-364.8h12.8c35.2 0 64 28.8 64 64v390.4c0 35.2-28.8 64-64 64zM960 832h-646.4c-35.2 0-64-28.8-64-64v-16h624c41.6 0 73.6-32 73.6-73.6v-364.8h12.8c35.2 0 64 28.8 64 64v390.4c0 35.2-28.8 64-64 64zM774.4 128c0-35.2-28.8-64-64-64h-646.4c-35.2 0-64 28.8-64 64v390.4c0 35.2 28.8 64 64 64h646.4c35.2 0 64-28.8 64-64v-390.4zM480 172.8h60.8v121.6h108.8v57.6h-108.8v121.6h-60.8v-121.6h-108.8v-57.6h108.8v-121.6z" />
<glyph unicode="&#xe618;" d="M953.6 192l-441.6-256-441.6 256v512l441.6 256 444.8-256v-512zM640 412.8l176 128-9.6 25.6-217.6-9.6-67.2 208h-25.6l-57.6-211.2h-217.6l-6.4-25.6 182.4-118.4-67.2-201.6 25.6-16 166.4 134.4 172.8-124.8 22.4 19.2-76.8 192z" />
<glyph unicode="&#xe619;" d="M1024 607.858c0-124.7-99.1-223.801-223.801-223.801s-223.801 99.1-223.801 223.801 99.1 223.801 223.801 223.801 223.801-99.1 223.801-223.801zM774.599 588.743c0-12.743 6.372-25.6 22.414-25.6h121.515c12.743 0 25.6 12.743 25.6 25.6 0 12.743-9.557 25.6-25.6 25.6h-92.729v127.886c0 16.043-12.743 25.6-25.6 25.6-12.743 0-25.6-9.557-25.6-25.6v-153.486zM710.656 80.27c0 0-19.228-9.557-19.228 22.414s-9.557 28.786-9.557 28.786h-633.173c0 0-16.043 0-16.043-31.972s-25.6-19.228-25.6-19.228-16.043-16.043 0-16.043h703.488c16.043 3.186 0.114 16.043 0.114 16.043zM688.242 221.013c-22.414 6.372-28.786-3.186-76.8 105.472-54.386 124.7-217.429 131.072-217.429 131.072v60.757h16.043c12.743 0 22.414 9.557 22.414 25.6 0 12.743-9.557 25.6-22.414 25.6h-79.986c-12.743 0-22.414-9.557-22.414-25.6 0-12.743 9.557-25.6 22.414-25.6h16.043v-60.757c0 0-166.229-9.557-220.615-131.072-51.2-108.772-60.757-99.1-83.172-105.472s-25.6-31.972 0-35.157c19.228-3.186 252.587 0 323.015 0s300.601-3.186 323.015 0c22.3 3.072 19.115 28.672-0.114 35.157z" />
<glyph unicode="&#xe61a;" d="M364.8 844.8l22.4 22.4h246.4l22.4-22.4v-102.4h-291.2v102.4zM364.8 960l-96-89.6v-121.6h-192v-812.8h873.6v809.6h-198.4v124.8l-96 89.6h-291.2z" />
<glyph unicode="&#xe61b;" d="M816 92.8v668.8h-92.8v80c0 35.2-28.8 64-64 64h-297.6c-35.2 0-64-28.8-64-64v-80h-89.6v-668.8h608zM358.4 761.6v48c0 25.6 19.2 48 41.6 48h220.8c22.4 0 41.6-22.4 41.6-48v-48h-304zM608 374.4l-12.8-9.6-86.4 64-83.2-67.2-9.6 9.6 32 102.4-89.6 60.8 3.2 12.8h108.8l28.8 105.6h12.8l32-105.6 108.8 6.4 3.2-12.8-86.4-64 38.4-102.4zM688 51.2c0-32 28.8-60.8 60.8-60.8s54.4 25.6 54.4 60.8v12.8h-115.2v-12.8zM336 51.2c0-32-28.8-60.8-60.8-60.8s-54.4 25.6-54.4 60.8v12.8h115.2v-12.8zM873.6 92.8h102.4c25.6 0 48 22.4 48 48v572.8c0 25.6-22.4 48-48 48h-102.4v-668.8zM150.4 92.8h-102.4c-25.6 0-48 22.4-48 48v572.8c0 25.6 22.4 48 48 48h102.4v-668.8z" />
<glyph unicode="&#xe61c;" d="M659.2 425.6v352h-156.8v32c0 60.8-48 108.8-108.8 108.8h-121.6c-60.8 0-108.8-48-108.8-108.8v-32h-163.2v-659.2h483.2l-86.4 128 262.4 179.2zM217.6 809.6c0 32 25.6 54.4 54.4 54.4h118.4c32 0 54.4-25.6 54.4-54.4v-32h-227.2v32zM953.6 451.2l-147.2 19.2-345.6-230.4 179.2-265.6 345.6 230.4 38.4 147.2-70.4 99.2zM934.4 307.2c-22.4-12.8-51.2-9.6-64 12.8-16 22.4-9.6 51.2 12.8 64s51.2 9.6 64-12.8c12.8-22.4 6.4-51.2-12.8-64z" />
<glyph unicode="&#xe61d;" d="M998.969 832.569c-16.725 16.725-36.75 25.031-60.302 25.031h-853.333c-23.438 0-43.577-8.306-60.302-25.031s-25.031-36.864-25.031-60.302v-648.533c0-23.438 8.306-43.577 25.031-60.302s36.75-25.031 60.302-25.031h853.333c23.438 0 43.577 8.306 60.302 25.031s25.031 36.75 25.031 60.302v648.533c0 23.438-8.306 43.577-25.031 60.302zM955.733 123.733c0-4.665-1.707-8.647-5.006-12.060-3.413-3.413-7.396-5.006-11.947-5.006h-853.447c-4.665 0-8.647 1.707-11.947 5.006-3.413 3.413-5.12 7.396-5.12 12.060v324.267h887.467v-324.267zM955.733 652.8h-887.467v119.467c0 4.665 1.707 8.647 5.12 11.947 3.413 3.413 7.396 5.006 11.947 5.006h853.333c4.665 0 8.647-1.707 11.947-5.006 3.413-3.413 5.006-7.396 5.006-11.947l0.114-119.467zM136.533 243.2h136.533v-68.267h-136.533v68.267zM341.333 243.2h204.8v-68.267h-204.8v68.267z" />
<glyph unicode="&#xe61e;" d="M841.6 371.2c-12.8 12.8-44.8 19.2-89.6 22.4-32 0-67.2-3.2-108.8-6.4-19.2 9.6-35.2 22.4-51.2 35.2-38.4 35.2-70.4 86.4-89.6 140.8 0 6.4 3.2 9.6 3.2 12.8 0 0 22.4 121.6 16 163.2 0 6.4 0 6.4-3.2 12.8l-3.2 6.4c-3.2 9.6-16 25.6-32 22.4h-9.6c-19.2 0-35.2-9.6-41.6-25.6-12.8-48 0-121.6 25.6-214.4l-9.6-16c-16-41.6-38.4-86.4-57.6-124.8l-3.2-6.4c-19.2-41.6-38.4-73.6-54.4-102.4l-16-9.6c0 0-32-16-38.4-19.2-60.8-35.2-99.2-76.8-105.6-108.8-3.2-9.6 0-22.4 9.6-28.8l16-9.6c6.4-3.2 16-6.4 22.4-6.4 41.6 0 92.8 51.2 160 169.6 76.8 25.6 166.4 48 243.2 57.6 60.8-32 131.2-57.6 179.2-57.6 9.6 0 16 0 22.4 3.2 9.6 3.2 16 6.4 19.2 12.8 9.6 12.8 9.6 32 9.6 51.2-3.2 12.8-6.4 19.2-12.8 25.6v0zM211.2 147.2c6.4 22.4 38.4 64 83.2 99.2 3.2 3.2 9.6 9.6 16 16-44.8-76.8-76.8-105.6-99.2-115.2v0zM480 761.6c12.8 0 22.4-35.2 22.4-67.2s-6.4-54.4-16-70.4c-6.4 25.6-12.8 64-12.8 89.6 0-3.2 0 48 6.4 48v0 0zM400 323.2c9.6 16 19.2 35.2 28.8 54.4 25.6 44.8 38.4 83.2 51.2 112 22.4-41.6 51.2-76.8 86.4-105.6 3.2-3.2 9.6-6.4 12.8-9.6-70.4-16-128-32-179.2-51.2v0 0zM828.8 326.4c-3.2-3.2-16-3.2-22.4-3.2-25.6 0-54.4 12.8-99.2 28.8 16 0 32 3.2 44.8 3.2 25.6 0 32 0 57.6-6.4s22.4-19.2 19.2-22.4v0zM918.4 729.6c-22.4 32-54.4 67.2-86.4 102.4s-70.4 64-99.2 86.4c-54.4 38.4-80 41.6-92.8 41.6h-496c-44.8 0-80-35.2-80-80v-864c0-44.8 35.2-80 80-80h736c44.8 0 80 35.2 80 80v624c0 12.8-3.2 38.4-41.6 89.6 0 0 0 0 0 0zM784 784c32-32 54.4-57.6 73.6-80h-153.6v153.6c22.4-16 51.2-41.6 80-73.6v0zM896 16c0-9.6-6.4-16-16-16h-736c-9.6 0-16 6.4-16 16v864c0 9.6 6.4 16 16 16 0 0 496 0 496 0v-224c0-19.2 12.8-32 32-32h224v-624z" />
<glyph unicode="&#xe61f;" d="M918.4 729.6c-22.4 32-54.4 67.2-86.4 102.4s-70.4 64-99.2 86.4c-54.4 38.4-80 41.6-92.8 41.6h-496c-44.8 0-80-35.2-80-80v-864c0-44.8 35.2-80 80-80h736c44.8 0 80 35.2 80 80v624c0 12.8-3.2 38.4-41.6 89.6zM704 857.6c22.4-19.2 51.2-41.6 80-73.6s54.4-57.6 73.6-80h-153.6v153.6zM896 16c0-9.6-6.4-16-16-16h-736c-9.6 0-16 6.4-16 16v864c0 9.6 6.4 16 16 16 0 0 496 0 496 0v-224c0-19.2 12.8-32 32-32h224v-624zM736 192h-448c-19.2 0-32-12.8-32-32s12.8-32 32-32h448c19.2 0 32 12.8 32 32s-12.8 32-32 32zM736 320h-448c-19.2 0-32-12.8-32-32s12.8-32 32-32h448c19.2 0 32 12.8 32 32s-12.8 32-32 32zM256 416c0-19.2 12.8-32 32-32h448c19.2 0 32 12.8 32 32s-12.8 32-32 32h-448c-19.2 0-32-12.8-32-32z" />
<glyph unicode="&#xe620;" d="M873.6 809.6c-92.8 92.8-220.8 150.4-361.6 150.4-281.6 0-512-230.4-512-512s230.4-512 512-512c153.6 0 291.2 67.2 384 176l-96 83.2c-6.4-6.4-12.8-12.8-16-19.2-73.6-73.6-169.6-112-272-112s-198.4 38.4-272 112c-73.6 73.6-112 169.6-112 272s38.4 198.4 112 272c73.6 73.6 169.6 112 272 112s198.4-38.4 272-112l-144-144h384v384l-150.4-150.4z" />
<glyph unicode="&#xe621;" d="M755.2 960h256v-1024h-256v1024zM374.4 534.4h256v-598.4h-256v598.4zM12.8 275.2h256v-339.2h-256v339.2z" />
<glyph unicode="&#xe622;" d="M740.124 934.4c-95.687 0-178.631-63.829-229.717-137.216-51.086 73.387-130.844 137.216-229.717 137.216-153.145 0-280.69-127.659-280.69-283.876 0-188.188 114.802-290.247 248.832-405.049 76.572-67.129 165.888-143.588 239.275-248.946l25.486-35.044 25.486 38.229c70.201 105.244 156.331 181.817 239.275 255.204 127.659 111.73 245.646 216.974 245.646 398.791-3.186 153.031-130.844 280.69-283.876 280.69zM733.753 296.448c-73.387-63.829-156.331-137.216-226.532-233.017-70.201 92.501-149.959 162.702-223.346 226.532-127.545 111.616-226.418 197.86-226.418 360.562 0 121.173 98.873 223.346 223.346 223.346 89.316 0 165.888-76.572 200.932-149.959l28.672-60.644 28.672 57.458c35.157 73.273 111.73 149.845 201.045 149.845 121.173 0 223.346-98.873 223.346-223.346-3.3-149.732-102.172-239.047-229.717-350.777z" />
<glyph unicode="&#xe623;" d="M740.124 934.514c-95.687 0-178.631-63.829-229.717-137.216-51.086 73.387-130.844 137.216-229.717 137.216-153.145 0-280.69-127.772-280.69-283.989 0-188.188 114.802-290.247 248.832-405.049 76.572-67.129 165.888-143.588 239.275-248.946l25.486-35.044 25.486 38.229c70.201 105.244 156.331 181.817 239.275 255.204 127.659 111.73 245.646 216.974 245.646 398.791-3.186 153.031-130.844 280.804-283.876 280.804z" />
<glyph unicode="&#xe624;" d="M910.677 474.169c-13.54 13.54-30.037 20.366-49.493 20.366h-23.211v139.605c0 89.202-31.972 165.774-96.028 229.831s-140.629 96.028-229.831 96.028-165.774-31.972-229.831-96.028-96.028-140.629-96.028-229.831v-139.605h-23.324c-19.342 0-35.84-6.827-49.493-20.366-13.54-13.54-20.366-30.037-20.366-49.493v-418.93c0-19.342 6.827-35.84 20.366-49.493 13.54-13.54 30.037-20.366 49.493-20.366h698.027c19.456 0 35.84 6.827 49.493 20.366 13.54 13.54 20.366 30.037 20.366 49.493v419.044c0.228 19.456-6.599 35.84-20.139 49.38zM698.254 494.535h-372.281v139.605c0 51.428 18.204 95.232 54.5 131.641 36.409 36.409 80.213 54.5 131.641 54.5s95.232-18.204 131.641-54.5c36.409-36.409 54.5-80.213 54.5-131.641v-139.605z" />
<glyph unicode="&#xe625;" d="M0 511.943h1024v-128h-1024v128z" />
<glyph unicode="&#xe626;" d="M1024 511.943h-448.057v448.057h-127.886v-448.057h-448.057v-127.886h448.057v-448.057h127.886v448.057h448.057z" />
<glyph unicode="&#xe627;" d="M256 896h512v-128h-512v128zM960 704h-896c-35.2 0-64-28.8-64-64v-320c0-35.2 28.8-64 64-64h192v-256h512v256h192c35.2 0 64 28.8 64 64v320c0 35.2-28.8 64-64 64zM128 512c-35.2 0-64 28.8-64 64s28.8 64 64 64 64-28.8 64-64-28.8-64-64-64zM704 64h-384v320h384v-320z" />
<glyph unicode="&#xe628;" d="M512 960c-281.6 0-512-230.4-512-512s230.4-512 512-512c281.6 0 512 230.4 512 512s-230.4 512-512 512zM512-3.2c-249.6 0-451.2 201.6-451.2 451.2s201.6 451.2 451.2 451.2 451.2-201.6 451.2-451.2-201.6-451.2-451.2-451.2zM470.4 243.2h57.6v-64h-57.6v64zM518.4 716.8c-80 0-121.6-41.6-153.6-86.4l-9.6-12.8 54.4-32 9.6 12.8c28.8 38.4 51.2 60.8 102.4 60.8 32 0 86.4-9.6 86.4-70.4 0-41.6-19.2-57.6-73.6-92.8-44.8-28.8-60.8-57.6-60.8-108.8v-60.8h57.6v16c0 70.4 6.4 83.2 51.2 112s89.6 60.8 89.6 134.4c-3.2 73.6-64 128-153.6 128z" />
<glyph unicode="&#xe629;" d="M512 960c-281.6 0-512-230.4-512-512s230.4-512 512-512c281.6 0 512 230.4 512 512s-230.4 512-512 512zM524.8 179.2h-57.6v64h57.6v-64zM579.2 451.2c-44.8-28.8-51.2-41.6-51.2-112v-16h-57.6v60.8c0 51.2 16 83.2 60.8 108.8 54.4 35.2 73.6 51.2 73.6 92.8 0 60.8-54.4 70.4-86.4 70.4-51.2 0-73.6-22.4-102.4-60.8l-9.6-12.8-54.4 32 9.6 12.8c32 44.8 73.6 86.4 153.6 86.4 89.6 0 150.4-54.4 150.4-131.2 3.2-70.4-41.6-105.6-86.4-131.2z" />
<glyph unicode="&#xe62a;" d="M512 960c-281.6 0-512-230.4-512-512s230.4-512 512-512 512 230.4 512 512-230.4 512-512 512z" />
<glyph unicode="&#xe62b;" d="M640 448c0-70.692-57.308-128-128-128s-128 57.308-128 128c0 70.692 57.308 128 128 128s128-57.308 128-128z" />
<glyph unicode="&#xe62c;" d="M512 960c-281.6 0-512-230.4-512-512s230.4-512 512-512 512 230.4 512 512-230.4 512-512 512zM512-3.2c-246.4 0-451.2 204.8-451.2 451.2s204.8 451.2 451.2 451.2 451.2-204.8 451.2-451.2-204.8-451.2-451.2-451.2z" />
<glyph unicode="&#xe62d;" d="M1017.173 48.299l-319.829 319.829c41.529 60.757 63.943 134.372 63.943 211.058 0 102.4-38.343 198.315-111.957 268.629s-166.343 112.071-268.743 112.071-198.315-41.643-268.629-111.957c-73.614-73.614-111.957-166.343-111.957-268.743s38.343-198.315 111.957-268.629c70.315-70.315 166.343-111.957 268.629-111.957 76.8 0 150.3 22.414 214.357 63.943l319.829-319.829c9.557-9.557 31.972-9.557 44.828 6.372l54.386 54.386c12.743 12.743 12.743 31.972 3.186 44.828zM380.587 300.885c-153.486 0-278.187 124.814-278.187 278.3s124.7 278.3 278.187 278.3 278.3-124.7 278.3-278.3-124.7-278.3-278.3-278.3z" />
<glyph unicode="&#xe62e;" d="M854.4 960h-684.8c-92.8 0-169.6-76.8-169.6-169.6v-681.6c0-96 76.8-172.8 169.6-172.8h342.4v448h-128v128h128v96c0 89.6 70.4 160 160 160h160v-128h-160c-19.2 0-32-12.8-32-32v-96h176l-32-128h-144v-448h214.4c92.8 0 169.6 76.8 169.6 169.6v684.8c0 92.8-76.8 169.6-169.6 169.6v0z" />
<glyph unicode="&#xe62f;" d="M185.6 195.2c22.4 0 41.6 0 60.8 0-25.6 25.6-48 57.6-48 99.2 0 22.4 6.4 44.8 19.2 67.2-9.6 0-22.4 0-32 0-73.6 0-137.6 25.6-185.6 64v-268.8c54.4 22.4 118.4 38.4 185.6 38.4v0zM832 448h-64v192h-192v64h192v192h64v-192h192v86.4c0 92.8-76.8 169.6-169.6 169.6h-684.8c-89.6 0-166.4-73.6-169.6-166.4 57.6 51.2 140.8 92.8 224 92.8 89.6 0 358.4 0 358.4 0l-80-67.2h-112c73.6-28.8 115.2-115.2 115.2-204.8 0-76.8-41.6-140.8-102.4-185.6-57.6-44.8-67.2-64-67.2-102.4 0-32 60.8-86.4 92.8-112 92.8-67.2 124.8-128 124.8-230.4 0-16-3.2-32-6.4-48h307.2c92.8 0 169.6 76.8 169.6 169.6v534.4h-192v-192zM236.8 393.6v0c92.8-3.2 153.6 92.8 137.6 214.4s-102.4 217.6-195.2 220.8c-92.8 3.2-153.6-89.6-137.6-211.2s102.4-220.8 195.2-224zM454.4 6.4c-16 57.6-67.2 86.4-144 140.8-25.6 9.6-54.4 12.8-86.4 12.8-89.6 0-172.8-35.2-220.8-89.6 16-76.8 86.4-134.4 166.4-134.4h288c3.2 9.6 3.2 22.4 3.2 35.2s-3.2 25.6-6.4 35.2v0z" />
<glyph unicode="&#xe630;" d="M854.4 960h-684.8c-92.8 0-169.6-76.8-169.6-169.6v-684.8c0-92.8 76.8-169.6 169.6-169.6h684.8c92.8 0 169.6 76.8 169.6 169.6v684.8c0 92.8-76.8 169.6-169.6 169.6zM326.4 512h368c6.4-19.2 9.6-41.6 9.6-64 0-108.8-86.4-195.2-195.2-195.2s-192 86.4-192 195.2c0 22.4 3.2 44.8 9.6 64v0zM896 512v-384c0-35.2-28.8-64-64-64h-640c-35.2 0-64 28.8-64 64v384h99.2c-3.2-19.2-6.4-41.6-6.4-64 0-160 131.2-291.2 291.2-291.2s291.2 131.2 291.2 291.2c0 22.4-3.2 44.8-6.4 64h99.2zM896 736c0-19.2-16-32-32-32h-64c-16 0-32 12.8-32 32v64c0 19.2 16 32 32 32h64c16 0 32-12.8 32-32v-64z" />
<glyph unicode="&#xe631;" d="M851.2 960h-678.4c-96 0-172.8-76.8-172.8-172.8v-678.4c0-96 76.8-172.8 172.8-172.8h678.4c96 0 172.8 76.8 172.8 172.8v678.4c0 96-76.8 172.8-172.8 172.8zM384 128h-128v448h128v-448zM320 640c-35.2 0-64 28.8-64 64s28.8 64 64 64 64-28.8 64-64-28.8-64-64-64zM832 128h-128v256c0 35.2-28.8 64-64 64s-64-28.8-64-64v-256h-128v448h128v-80c25.6 35.2 67.2 80 112 80 80 0 144-70.4 144-160v-288z" />
<glyph unicode="&#xe632;" d="M855.95 960h-684.828c-92.729 0-169.529-76.8-169.529-169.643v-681.643c0-95.915 76.8-172.715 169.529-172.715h681.643c92.843 0 169.643 76.8 169.643 169.643v684.715c3.186 92.843-73.614 169.643-166.457 169.643zM574.35 156.843c-51.2 0-99.214 25.6-118.443 57.572 0 0-25.6-99.214-31.972-121.628-12.743-44.828-41.643-99.214-63.943-134.372l-35.157 12.743c-3.186 41.643-9.557 102.4 3.186 147.228 9.557 38.457 60.757 256 60.757 256s-16.043 31.972-16.043 76.8c0 70.428 41.643 124.814 92.843 124.814 44.828 0 63.943-31.972 63.943-73.614 0-44.828-28.786-108.772-41.643-169.643-12.743-51.2 25.6-92.843 76.8-92.843 89.543 0 159.972 96.028 159.972 233.586 0 121.628-89.657 207.986-214.357 207.986-147.228 0-230.4-108.772-230.4-220.843 0-44.828 16.043-92.843 38.457-118.443 3.186-6.372 3.186-9.557 3.186-16.043-3.186-16.043-12.743-51.2-12.743-57.572-3.186-9.557-9.557-12.743-19.228-6.372-63.943 28.786-102.4 124.814-102.4 198.428 0 159.972 118.443 310.386 339.172 310.386 179.2 0 316.757-128 316.757-294.457-3.186-178.972-115.143-319.716-268.743-319.716v0z" />
<glyph unicode="&#xe633;" d="M855.95 960h-684.828c-92.729 0-169.529-76.8-169.529-169.643v-681.643c0-95.915 76.8-172.715 169.529-172.715h681.643c92.843 0 169.643 76.8 169.643 169.643v684.715c3.186 92.843-73.614 169.643-166.457 169.643zM769.593 579.186c0-6.372 0-12.743 0-16.043 0-172.828-131.186-374.443-374.443-374.443-73.614 0-144.043 22.414-201.614 57.572 9.557 0 19.228-3.186 31.972-3.186 60.757 0 118.443 22.414 163.157 57.572-57.572 0-105.586 38.457-121.628 89.543 9.557 0 16.043-3.186 25.6-3.186 12.743 0 22.414 3.186 35.157 3.186-60.757 12.743-105.586 63.943-105.586 128 0 0 0 0 0 3.186 19.228-9.557 38.457-16.043 60.757-16.043-35.157 22.414-57.572 63.943-57.572 108.772 0 25.6 6.372 48.014 19.228 67.243 64.171-79.758 160.085-130.958 272.156-137.33-3.186 9.557-3.186 19.228-3.186 28.786 0 73.614 57.572 131.186 131.186 131.186 38.457 0 70.428-16.043 96.028-41.643 28.786 6.372 57.572 16.043 83.172 31.972-9.557-31.972-31.972-57.572-57.572-73.614 25.6 3.186 51.2 9.557 76.8 19.228-28.9-19.115-48.014-41.529-73.614-60.757z" />
<glyph unicode="&#xe634;" d="M501.988 602.738c14.222 0 21.276 11.378 21.276 34.020v103.993c0 23.097-7.054 34.702-21.276 34.702s-21.276-11.605-21.276-34.702v-103.993c0-22.756 7.054-34.020 21.276-34.020zM855.95 960h-684.828c-92.729 0-169.529-76.8-169.529-169.643v-681.643c0-95.915 76.8-172.715 169.529-172.715h681.643c92.843 0 169.643 76.8 169.643 169.643v684.715c3.186 92.843-73.614 169.643-166.457 169.643zM604.729 811.975h44.601v-181.362c0-10.695 0.228-16.498 0.683-17.294 0.455-7.054 3.982-10.695 10.695-10.695 8.875 0 18.204 6.827 27.989 20.708v188.644h44.715v-246.67h-44.715v26.624c-18.204-20.025-35.385-30.037-51.314-30.037-14.222 0-23.78 6.030-28.672 17.977-2.617 7.964-3.982 20.252-3.982 36.636v195.47zM435.996 731.989c0 25.828 4.665 45.056 13.995 58.027 11.947 16.839 29.355 25.372 51.996 25.372 21.732 0 39.14-8.42 51.996-25.372 9.33-12.857 13.995-32.199 13.995-58.027v-86.699c0-26.624-4.665-45.966-13.995-58.027-12.857-16.953-30.265-25.372-51.996-25.372-22.642 0-40.050 8.42-51.996 25.372-9.33 12.857-13.995 32.199-13.995 58.027v86.699zM315.961 896.626l35.385-130.048 34.020 130.048h49.948l-59.961-197.291v-134.030h-49.38v134.030c-4.892 24.462-15.132 59.506-30.72 105.358-10.24 30.72-15.36 45.966-15.36 45.966l-15.929 45.966c0 0 51.996 0 51.996 0zM865.394 91.989c-4.437-19.115-13.881-35.271-28.331-48.697-14.45-13.312-31.175-21.163-50.29-23.324-60.871-6.713-152.462-10.012-274.66-10.012s-213.788 3.3-274.66 10.012c-19.115 2.276-35.84 10.012-50.29 23.324s-23.893 29.582-28.331 48.697c-8.875 37.319-13.312 95.118-13.312 173.397 0 76.914 4.437 134.713 13.312 173.284 4.437 19.57 13.881 35.84 28.331 49.038 14.45 13.084 31.403 20.821 50.972 22.983 60.416 6.713 151.78 10.012 273.977 10.012 122.652 0 214.244-3.3 274.66-10.012 19.115-2.276 35.954-9.899 50.631-22.983s24.235-29.468 28.672-49.038c8.42-36.864 12.629-94.663 12.629-173.284 0-78.279-4.437-136.078-13.312-173.397zM200.021 388.722h51.996v-282.055h49.266v282.055h53.362v46.649h-154.624zM443.847 164.693c-9.671-13.767-19.001-20.708-27.876-20.708-6.258 0-9.557 3.3-10.012 10.012-0.455 0.91-0.683 6.713-0.683 17.294v180.11h-44.032v-193.308c0-16.839 1.365-28.9 3.982-35.954 3.982-12.402 13.312-18.66 27.989-18.66 16.498 0 33.337 10.012 50.631 30.037v-26.852h44.715v244.622h-44.715v-186.596zM616.676 354.702c-16.043 0-31.175-8.875-45.284-26.624v107.292h-44.715v-328.704h44.715v24.007c14.677-18.204 29.81-27.307 45.284-27.307 18.204 0 30.037 9.33 35.271 27.989 3.072 9.33 4.665 25.6 4.665 48.697v97.28c0 23.552-1.593 40.050-4.665 49.38-5.234 18.66-17.067 27.989-35.271 27.989zM612.693 176.64c0-21.732-6.485-32.654-19.342-32.654-7.509 0-14.905 3.527-21.959 10.695v149.276c7.054 7.054 14.45 10.695 21.959 10.695 12.857 0 19.342-11.15 19.342-33.337v-104.676zM778.695 176.981c0-4.665-0.114-8.306-0.341-11.036-0.228-2.617-0.341-4.21-0.341-4.665-2.617-11.605-9.33-17.294-20.025-17.294-15.132 0-22.642 11.378-22.642 34.020v43.349h88.633v50.631c0 25.828-4.665 44.828-13.995 57.344-11.947 16.839-29.355 25.372-51.996 25.372s-40.391-8.42-53.362-25.372c-8.875-12.060-13.312-31.175-13.312-57.344v-86.016c0-26.169 4.665-45.397 13.995-57.344 12.857-16.839 30.834-25.372 54.044-25.372 23.552 0 41.301 8.875 53.362 26.624 5.348 7.964 8.647 16.839 10.012 26.624 0.91 6.258 1.365 15.815 1.365 28.672v6.030h-45.397v-14.222zM735.232 280.633v0 0c0.114 22.642 7.396 34.020 22.073 34.020s21.959-11.378 21.959-34.020v-22.642h-44.032v22.642z" />
<glyph unicode="&#xe635;" d="M1024 563.2l-355.2 51.2-156.8 320-156.8-320-355.2-51.2 256-249.6-60.8-352 316.8 166.4 316.8-166.4-60.8 352 256 249.6zM512 192l-240-128 44.8 268.8-195.2 192 268.8 38.4 121.6 243.2 121.6-243.2 268.8-38.4-195.2-192 44.8-268.8-240 128z" />
<glyph unicode="&#xe636;" d="M1024 563.2l-355.2 51.2-156.8 320-156.8-320-355.2-51.2 256-249.6-60.8-352 316.8 166.4 316.8-166.4-60.8 352c0 0 256 249.6 256 249.6z" />
<glyph unicode="&#xe637;" d="M771.2 700.8c0-143.152-116.048-259.2-259.2-259.2s-259.2 116.048-259.2 259.2c0 143.152 116.048 259.2 259.2 259.2s259.2-116.048 259.2-259.2zM512 387.2c-249.6 0-451.2-201.6-451.2-451.2h902.4c0 249.6-201.6 451.2-451.2 451.2z" />
<glyph unicode="&#xe638;" d="M982.471 854.642h-312.889c-22.3 0-51.086-12.743-67.015-28.786l-383.090-383.090c-15.929-15.929-15.929-38.343 0-54.272l335.189-335.189c15.929-15.929 38.343-15.929 54.272 0l386.276 386.276c15.929 15.929 28.786 44.715 28.786 67.015v309.703c-3.186 22.414-19.115 38.343-41.529 38.343zM787.797 544.939c-41.529 0-76.572 35.157-76.572 76.572s35.157 76.572 76.572 76.572 76.572-35.157 76.572-76.572-35.157-76.572-76.572-76.572zM88.633 414.094l440.548 440.548h-63.829c-22.3 0-51.086-12.743-67.015-28.786l-386.389-383.090c-15.929-15.929-15.929-38.343 0-54.272l335.189-335.189c15.929-15.929 38.343-15.929 54.272 0l25.486 25.486-338.261 335.303z" />
<glyph unicode="&#xe639;" d="M972.914 960h-392.988c-25.6 0-63.943-15.929-83.058-35.157l-482.418-485.604c-19.115-19.115-19.115-51.086 0-70.315l418.588-418.588c19.115-19.115 51.086-19.115 70.315 0l485.604 485.604c19.115 19.115 35.157 57.458 35.157 83.058v393.102c-3.3 25.486-25.714 47.9-51.2 47.9zM726.812 570.197c-54.272 0-99.1 44.715-99.1 99.1s44.715 99.1 99.1 99.1 99.1-44.715 99.1-99.1-44.715-99.1-99.1-99.1z" />
<glyph unicode="&#xe63a;" d="M576.057 704h-42.667c-6.258 0-11.378-2.048-15.36-6.030s-6.030-9.102-6.030-15.36v-234.61h-149.276c-6.258 0-11.378-2.048-15.36-6.030s-6.030-9.102-6.030-15.36v-42.667c0-6.258 2.048-11.378 6.030-15.36s9.102-6.030 15.36-6.030h213.333c6.258 0 11.378 2.048 15.36 6.030s6.030 9.102 6.030 15.36v298.78c0 6.258-2.048 11.378-6.030 15.36-4.096 3.868-9.216 5.916-15.36 5.916zM512 960c-281.6 0-512-230.4-512-512s230.4-512 512-512 512 230.4 512 512-230.4 512-512 512zM512-3.243c-249.628 0-451.243 201.614-451.243 451.243s201.614 451.243 451.243 451.243 451.243-201.614 451.243-451.243-201.614-451.243-451.243-451.243z" />
<glyph unicode="&#xe63b;" d="M512 960c-281.6 0-512-230.4-512-512s230.4-512 512-512 512 230.4 512 512-230.4 512-512 512zM668.8 243.2l-156.8 160-156.8-156.8-44.8 44.8 156.8 156.8-156.8 156.8 44.8 44.8 156.8-156.8 156.8 156.8 44.8-44.8-156.8-156.8 156.8-156.8-44.8-48z" />
<glyph unicode="&#xe63c;" d="M512 960c-281.6 0-512-230.4-512-512s230.4-512 512-512c281.6 0 512 230.4 512 512s-230.4 512-512 512zM512-3.2c-246.4 0-451.2 204.8-451.2 451.2s204.8 451.2 451.2 451.2 451.2-204.8 451.2-451.2-204.8-451.2-451.2-451.2zM480 563.2h64v-364.8h-64v364.8zM480 732.8h64v-73.6h-64v73.6z" />
<glyph unicode="&#xe63d;" d="M877.34 429.227c-12.402 12.402-27.534 18.66-45.284 18.66h-490.837v213.447c0 47.104 16.612 87.381 49.948 120.718s73.5 49.948 120.718 49.948 87.381-16.612 120.718-49.948 50.062-73.5 50.062-120.718c0-11.605 4.21-21.504 12.629-30.037 8.42-8.42 18.432-12.629 30.037-12.629h42.667c11.605 0 21.504 4.21 30.037 12.629 8.42 8.42 12.629 18.432 12.629 30.037 0 82.261-29.241 152.576-87.723 210.944s-128.683 87.723-211.058 87.723-152.576-29.241-211.058-87.723-87.609-128.796-87.609-210.944v-213.333h-21.276c-17.749 0-32.882-6.258-45.284-18.66s-18.66-27.534-18.66-45.284v-384c0-17.749 6.258-32.882 18.66-45.284s27.534-18.66 45.284-18.66h640.114c17.749 0 32.882 6.258 45.284 18.66s18.66 27.534 18.66 45.284v383.886c0 17.749-6.258 32.882-18.66 45.284z" />
</font>
</defs>
</svg>
